<svg width="75" height="62" viewBox="0 0 75 62" fill="none" xmlns="http://www.w3.org/2000/svg">
<g id="Group">
<path id="Vector" fill-rule="evenodd" clip-rule="evenodd" d="M29.2976 7.86666C27.1636 8.88888 25.7854 10.0889 24.9407 11.4222C22.4511 15.4667 25.8743 25.1111 30.987 30.8444C37.0332 37.6444 41.3011 36 45.8358 28.9333C47.6586 26.0444 49.0812 22.7555 49.8814 19.5111C50.8595 15.6 50.4594 11.6889 47.3029 8.93333C45.3023 7.2 41.9235 5.95555 36.2774 6.22222C33.8323 6.35555 31.5205 6.79999 29.2976 7.86666Z" fill="#ED2024"/>
<path id="Vector_2" fill-rule="evenodd" clip-rule="evenodd" d="M20.0948 7.11111L28.6307 3.6V0.533332H31.7872V2.31111L37.4333 0L54.7718 7.11111V10.7556L37.4333 3.64444L20.0948 10.7556V7.11111Z" fill="#5C9F38"/>
<path id="Vector_3" fill-rule="evenodd" clip-rule="evenodd" d="M39.1671 8.75555C39.4339 8.75555 39.6562 9.24459 39.6562 9.82254C39.6562 10.4005 39.4339 10.8895 39.1671 10.8895C38.9004 10.8895 38.6781 10.4005 38.6781 9.82254C38.6781 9.24459 38.9004 8.75555 39.1671 8.75555Z" fill="white"/>
<path id="Vector_4" fill-rule="evenodd" clip-rule="evenodd" d="M42.9016 10.2222C43.1684 10.2222 43.3907 10.7113 43.3907 11.2892C43.3907 11.8672 43.1684 12.3562 42.9016 12.3562C42.6349 12.3562 42.4126 11.8672 42.4126 11.2892C42.4126 10.7113 42.6349 10.2222 42.9016 10.2222Z" fill="white"/>
<path id="Vector_5" fill-rule="evenodd" clip-rule="evenodd" d="M45.7468 12.2667C46.0136 12.2667 46.2359 12.7557 46.2359 13.3336C46.2359 13.9116 46.0136 14.4006 45.7468 14.4006C45.4801 14.4006 45.2578 13.9116 45.2578 13.3336C45.2578 12.7557 45.4801 12.2667 45.7468 12.2667Z" fill="white"/>
<path id="Vector_6" fill-rule="evenodd" clip-rule="evenodd" d="M47.9697 15.2C48.2365 15.2 48.4588 15.689 48.4588 16.267C48.4588 16.8449 48.2365 17.334 47.9697 17.334C47.703 17.334 47.4807 16.8449 47.4807 16.267C47.4363 15.689 47.703 15.2 47.9697 15.2Z" fill="white"/>
<path id="Vector_7" fill-rule="evenodd" clip-rule="evenodd" d="M40.7676 14.0889C41.0343 14.0889 41.2566 14.5779 41.2566 15.1559C41.2566 15.7338 41.0343 16.2228 40.7676 16.2228C40.5008 16.2228 40.2786 15.7338 40.2786 15.1559C40.2786 14.5779 40.5008 14.0889 40.7676 14.0889Z" fill="white"/>
<path id="Vector_8" fill-rule="evenodd" clip-rule="evenodd" d="M36.0107 11.8222C36.2774 11.8222 36.4997 12.3113 36.4997 12.8892C36.4997 13.4671 36.2774 13.9562 36.0107 13.9562C35.744 13.9562 35.5217 13.4671 35.5217 12.8892C35.5217 12.3113 35.744 11.8222 36.0107 11.8222Z" fill="white"/>
<path id="Vector_9" fill-rule="evenodd" clip-rule="evenodd" d="M35.6995 19.7778C35.9662 19.7778 36.1885 20.2668 36.1885 20.8448C36.1885 21.4227 35.9662 21.9117 35.6995 21.9117C35.4327 21.9117 35.2104 21.4227 35.2104 20.8448C35.2104 20.2668 35.4327 19.7778 35.6995 19.7778Z" fill="white"/>
<path id="Vector_10" fill-rule="evenodd" clip-rule="evenodd" d="M38.6337 16.8C38.9004 16.8 39.1227 17.289 39.1227 17.867C39.1227 18.4449 38.9004 18.934 38.6337 18.934C38.3669 18.934 38.1446 18.4449 38.1446 17.867C38.1002 17.289 38.3225 16.8 38.6337 16.8Z" fill="white"/>
<path id="Vector_11" fill-rule="evenodd" clip-rule="evenodd" d="M43.8352 14.9333C44.1019 14.9333 44.3242 15.4224 44.3242 16.0003C44.3242 16.5783 44.1019 17.0673 43.8352 17.0673C43.5685 17.0673 43.3462 16.5783 43.3462 16.0003C43.3017 15.3779 43.524 14.9333 43.8352 14.9333Z" fill="white"/>
<path id="Vector_12" fill-rule="evenodd" clip-rule="evenodd" d="M45.569 17.5556C45.8358 17.5556 46.0581 18.0446 46.0581 18.6225C46.0581 19.2005 45.8358 19.6895 45.569 19.6895C45.3023 19.6895 45.08 19.2005 45.08 18.6225C45.0355 18.0446 45.2578 17.5556 45.569 17.5556Z" fill="white"/>
<path id="Vector_13" fill-rule="evenodd" clip-rule="evenodd" d="M41.8791 17.4222C42.1458 17.4222 42.3681 17.9112 42.3681 18.4892C42.3681 19.0671 42.1458 19.5562 41.8791 19.5562C41.6123 19.5562 41.39 19.0671 41.39 18.4892C41.39 17.9112 41.6123 17.4222 41.8791 17.4222Z" fill="white"/>
<path id="Vector_14" fill-rule="evenodd" clip-rule="evenodd" d="M39.5673 21.1555C39.834 21.1555 40.0563 21.6446 40.0563 22.2225C40.0563 22.8005 39.834 23.2895 39.5673 23.2895C39.3005 23.2895 39.0782 22.8005 39.0782 22.2225C39.0782 21.6446 39.3005 21.1555 39.5673 21.1555Z" fill="white"/>
<path id="Vector_15" fill-rule="evenodd" clip-rule="evenodd" d="M43.4351 21.3333C43.7018 21.3333 43.9241 21.8224 43.9241 22.4003C43.9241 22.9783 43.7018 23.4673 43.4351 23.4673C43.1683 23.4673 42.946 22.9783 42.946 22.4003C42.946 21.8224 43.1683 21.3333 43.4351 21.3333Z" fill="white"/>
<path id="Vector_16" fill-rule="evenodd" clip-rule="evenodd" d="M46.1025 22.4445C46.3692 22.4445 46.5915 22.9335 46.5915 23.5114C46.5915 24.0894 46.3692 24.5784 46.1025 24.5784C45.8357 24.5784 45.6135 24.0894 45.6135 23.5114C45.569 22.9335 45.7913 22.4445 46.1025 22.4445Z" fill="white"/>
<path id="Vector_17" fill-rule="evenodd" clip-rule="evenodd" d="M41.1233 24.6667C41.3901 24.6667 41.6123 25.1557 41.6123 25.7337C41.6123 26.3116 41.3901 26.8006 41.1233 26.8006C40.8566 26.8006 40.6343 26.3116 40.6343 25.7337C40.6343 25.1112 40.8566 24.6667 41.1233 24.6667Z" fill="white"/>
<path id="Vector_18" fill-rule="evenodd" clip-rule="evenodd" d="M41.1677 28.4444C41.4345 28.4444 41.6568 28.9335 41.6568 29.5114C41.6568 30.0894 41.4345 30.5784 41.1677 30.5784C40.901 30.5784 40.6787 30.0894 40.6787 29.5114C40.6787 28.9335 40.901 28.4444 41.1677 28.4444Z" fill="white"/>
<path id="Vector_19" fill-rule="evenodd" clip-rule="evenodd" d="M43.5685 26.2222C43.8352 26.2222 44.0575 26.7113 44.0575 27.2892C44.0575 27.8672 43.8352 28.3562 43.5685 28.3562C43.3017 28.3562 43.0795 27.8672 43.0795 27.2892C43.035 26.7113 43.2573 26.2222 43.5685 26.2222Z" fill="white"/>
<path id="Vector_20" fill-rule="evenodd" clip-rule="evenodd" d="M27.3414 11.1111C23.1624 17.7333 29.3865 27.6 35.2549 32.4444C27.3859 21.8667 26.23 18.4444 27.3414 11.1111Z" fill="white"/>
<path id="Vector_21" fill-rule="evenodd" clip-rule="evenodd" d="M2.57854 46.3556C2.35626 46.1778 2.26734 45.9111 2.26734 45.6445C2.26734 45.2889 2.48963 44.9778 2.80083 44.8C3.06758 44.6667 3.33432 44.5778 3.64552 44.5778C4.00118 44.5778 4.4013 44.6667 4.75696 44.7556C4.97925 44.8 5.42383 44.9778 5.64612 44.9778C5.91286 44.9778 6.0907 44.8889 6.26853 44.7111C6.44636 44.5333 6.53527 44.3111 6.53527 44.0889C6.53527 43.5111 6.0907 43.2 5.60166 43.0222C5.06817 42.8 4.44576 42.7111 3.86781 42.7111C2.9342 42.7111 2.00059 42.8889 1.24481 43.4667C0.489035 44.0444 0.177835 44.8889 0.177835 45.8222C0.177835 46.5778 0.355664 47.2889 0.933613 47.7778C1.42265 48.1778 2.22288 48.4444 2.80083 48.6222C3.28987 48.7556 4.13456 49.0222 4.53468 49.2889C4.84588 49.5111 5.02371 49.8222 5.02371 50.2222C5.02371 50.6222 4.84588 50.9333 4.49022 51.1556C4.17902 51.3333 3.86782 51.4222 3.51216 51.4222C3.02312 51.4222 2.48963 51.2444 2.04505 51.0667C1.73385 50.9333 1.20036 50.7556 0.889152 50.7556C0.622407 50.7556 0.444575 50.8444 0.311202 51.0667C0.133371 51.2889 0 51.5556 0 51.8222C0 52.2222 0.311203 52.5333 0.666864 52.7111C1.51156 53.2 2.48963 53.3333 3.4677 53.3333C4.44576 53.3333 5.42383 53.1111 6.17961 52.4889C6.93539 51.8667 7.24659 50.9778 7.24659 50C7.24659 49.0667 6.93539 48.3111 6.17961 47.7778C5.60166 47.3778 4.31239 46.9778 3.64552 46.7111C3.2454 46.6667 2.80083 46.5333 2.57854 46.3556ZM12.7593 45.7333C12.4481 45.6444 11.8702 45.6445 11.559 45.6445H11.3367V43.8222C11.3367 43.5556 11.2478 43.3333 11.07 43.1556C10.8921 42.9778 10.6698 42.8889 10.4475 42.8889C10.1808 42.8889 9.95851 42.9778 9.73622 43.1556C9.55839 43.3333 9.46947 43.5556 9.46947 43.8222V45.6445H9.24719C8.66924 45.6445 8.00237 45.7333 8.00237 46.4444C8.00237 46.7111 8.04683 47.0222 8.31357 47.1556C8.53586 47.2889 8.98044 47.2889 9.24719 47.2889H9.46947V52.2667C9.46947 52.5333 9.55839 52.7556 9.73622 52.9333C9.8696 53.1111 10.0919 53.2 10.3142 53.2C11.0255 53.2 11.3367 52.8889 11.3367 52.1778V47.2889H12.3148C12.8927 47.2889 13.2039 47.0667 13.2039 46.4444C13.1595 46.1333 13.0705 45.8667 12.7593 45.7333ZM15.5602 46.1778C15.3823 45.7333 15.0711 45.6 14.6266 45.6C14.3598 45.6 14.1375 45.6889 13.9597 45.8667C13.7819 46.0889 13.6929 46.3111 13.6929 46.5778V52.2222C13.6929 52.4889 13.7374 52.7111 13.9152 52.9333C14.0486 53.1111 14.2709 53.2444 14.4932 53.2444C15.2045 53.2444 15.5602 52.9333 15.5602 52.1778V49.2444C15.5602 48.7111 15.6935 48.1333 16.1826 47.8222C16.4493 47.6 16.8939 47.4667 17.2051 47.3778C17.4718 47.2889 17.872 47.1556 18.1387 46.9778C18.3165 46.8445 18.4055 46.6222 18.4055 46.4C18.4055 46.1333 18.3165 45.9111 18.1387 45.6889C17.9609 45.5111 17.7831 45.3778 17.5163 45.3778C16.8939 45.3778 16.4049 45.7333 16.0047 46.2222L15.738 46.5778L15.5602 46.1778ZM26.23 52.2667V46.5778C26.23 46.3111 26.1411 46.0445 25.9633 45.8667C25.7854 45.6889 25.5631 45.6 25.2964 45.6C24.8518 45.6 24.5851 45.7778 24.4517 46.1778L24.3183 46.5778L24.0516 46.2667C23.5625 45.6889 22.9401 45.4222 22.1844 45.4222C21.5619 45.4222 21.0285 45.6 20.5394 45.9556C19.3391 46.8 18.8056 48 18.8056 49.4222C18.8056 50.0889 18.9834 50.7556 19.2501 51.3778C19.8281 52.6667 20.7617 53.3778 22.1844 53.3778C22.8957 53.3778 23.5181 53.1556 24.0071 52.5778L24.2739 52.2667L24.4072 52.6667C24.5851 53.1111 24.9407 53.2444 25.3853 53.2444C25.6076 53.2444 25.7854 53.1556 25.9633 52.9778C26.1411 52.7556 26.23 52.5333 26.23 52.2667ZM24.3628 49.4222C24.3628 49.9556 24.2294 50.4889 23.9182 50.9333C23.5625 51.4222 23.0735 51.6445 22.4956 51.6445C21.9176 51.6445 21.473 51.4222 21.0729 50.9333C20.7617 50.4889 20.6283 50 20.6283 49.4667C20.6283 48.9333 20.7617 48.4 21.0285 47.9556C21.3841 47.4667 21.8731 47.2 22.4511 47.2C23.029 47.2 23.5181 47.4222 23.8737 47.9111C24.2739 48.3556 24.3628 48.8445 24.3628 49.4222ZM38.5892 46.4444C38.5892 46.1778 38.5448 45.9556 38.3669 45.7778C38.1891 45.6 37.9223 45.5556 37.7001 45.5556C37.211 45.5556 36.9443 45.7778 36.8109 46.2222L35.6106 50.1778H35.2104L34.099 46.7111C34.0101 46.4 33.8322 46.0444 33.6544 45.7778C33.521 45.6 33.2988 45.5111 33.0765 45.5111C32.8097 45.5111 32.5874 45.6 32.4096 45.8667C32.2318 46.0445 32.1429 46.4445 32.0539 46.7111L30.9425 50.1778H30.5868L29.342 46.2222C29.2087 45.7778 28.9419 45.5556 28.4973 45.5556C28.2306 45.5556 28.0083 45.6445 27.786 45.8222C27.6082 46 27.5193 46.1778 27.5193 46.4444C27.5193 46.6667 27.8305 47.4667 27.9194 47.6889L29.5199 52.2667C29.7421 52.8889 30.0978 53.2889 30.7647 53.2889C31.4315 53.2889 31.7427 52.8 31.9206 52.2667L32.8986 49.3333L33.2988 49.2889L34.2768 52.2667C34.3657 52.4889 34.4991 52.8889 34.6769 53.0667C34.8548 53.2444 35.166 53.3333 35.4327 53.3333C36.0996 53.3333 36.4997 52.9333 36.6775 52.3111L38.278 47.7333C38.3669 47.4222 38.5892 46.7111 38.5892 46.4444ZM47.5697 49.4222C47.5697 47.9556 47.0806 46.7556 45.8358 45.9556C45.3468 45.6444 44.8133 45.4222 44.1909 45.4222C43.524 45.4222 42.9016 45.6 42.3681 46.0445L41.968 46.4V43.0667C41.968 42.8 41.8791 42.5778 41.7012 42.4C41.5234 42.2222 41.3011 42.1333 41.0344 42.1333C40.7676 42.1333 40.5453 42.2222 40.3675 42.4C40.1897 42.6222 40.1008 42.8444 40.1008 43.1111V52.3111C40.1008 52.5778 40.1897 52.8 40.3675 52.9778C40.5009 53.1556 40.7232 53.2889 40.9455 53.2889C41.39 53.2889 41.7457 53.1111 41.9235 52.7111L42.0569 52.3111L42.3237 52.6667C42.7682 53.2444 43.3906 53.4667 44.102 53.4667C45.1245 53.4667 45.9692 53.0222 46.5916 52.2222C47.3029 51.3333 47.5697 50.4445 47.5697 49.4222ZM45.7024 49.4222C45.7024 49.9556 45.5691 50.4889 45.2579 50.9333C44.9022 51.4222 44.4576 51.6445 43.8797 51.6445C43.3017 51.6445 42.8127 51.4222 42.457 50.9333C42.1458 50.4889 42.0125 49.9556 42.0125 49.4222C42.0125 48.8889 42.1458 48.3556 42.457 47.9111C42.8127 47.4222 43.3017 47.2 43.8797 47.2C44.4576 47.2 44.9467 47.4667 45.2579 47.9111C45.6135 48.3556 45.7024 48.8889 45.7024 49.4222ZM56.3278 49.1556C56.3278 48.1333 56.0166 47.2445 55.3053 46.4889C54.6384 45.7333 53.7937 45.3778 52.7712 45.3778C51.7042 45.3778 50.7706 45.7778 50.0148 46.5333C49.259 47.3333 48.9034 48.2667 48.9034 49.3778C48.9034 50.4889 49.2146 51.4667 49.9704 52.2667C50.7261 53.0667 51.7042 53.3778 52.7712 53.3778C53.527 53.3778 54.2383 53.2445 54.9052 52.9778C55.4387 52.7556 56.15 52.4 56.15 51.7333C56.15 51.5111 56.1055 51.3333 55.9277 51.1556C55.7943 51.0222 55.6165 50.9333 55.4386 50.9333C55.3053 50.9333 54.9052 51.1111 54.7718 51.1556C54.505 51.2889 54.2383 51.3778 53.9715 51.5111C53.7048 51.6 53.3936 51.6445 53.0824 51.6445C52.5934 51.6445 52.1488 51.5556 51.7042 51.3333C51.2152 51.0667 50.904 50.6667 50.904 50.0889V49.8667H55.3942C55.6165 49.8667 55.9277 49.8222 56.1055 49.6889C56.2833 49.6444 56.3278 49.3333 56.3278 49.1556ZM54.4606 48.8H50.9484V48.5778C50.9484 48.1333 51.1707 47.7333 51.4819 47.4222C51.8376 47.1111 52.1932 46.9333 52.6823 46.9333C53.1269 46.9333 53.527 47.1111 53.8826 47.4222C54.2383 47.7333 54.4606 48.1333 54.4606 48.5778V48.8ZM59.5288 46.1778C59.3509 45.7333 59.0397 45.6 58.5951 45.6C58.3284 45.6 58.1061 45.6889 57.9283 45.8667C57.7504 46.0889 57.6615 46.3111 57.6615 46.5778V52.2222C57.6615 52.4889 57.706 52.7111 57.8838 52.9333C58.0172 53.1111 58.2395 53.2444 58.4618 53.2444C59.1731 53.2444 59.5288 52.9333 59.5288 52.1778V49.2444C59.5288 48.7111 59.6621 48.1333 60.1512 47.8222C60.4179 47.6 60.8625 47.4667 61.1737 47.3778C61.4404 47.2889 61.8405 47.1556 62.1073 46.9778C62.2851 46.8445 62.374 46.6222 62.374 46.4C62.374 46.1333 62.2851 45.9111 62.1073 45.6889C61.9295 45.5111 61.7516 45.3778 61.4849 45.3778C60.8625 45.3778 60.3734 45.7333 59.9733 46.2222L59.7066 46.5778L59.5288 46.1778ZM69.265 55.6C69.3539 56.0889 69.6206 56.4444 70.1541 56.4444C70.6876 56.4444 70.9544 56 71.1766 55.6L74.8222 47.1556C74.9111 46.9333 75 46.7111 75 46.4444C75 46.1778 74.9111 45.9556 74.7333 45.7778C74.5554 45.6 74.2887 45.5111 74.0219 45.5111C73.5329 45.5111 73.2217 46.0889 73.0439 46.4889L71.4434 50.3556L69.8429 46.2222C69.6651 45.7778 69.3539 45.5111 68.8649 45.5111C68.5981 45.5111 68.4203 45.6 68.2424 45.7333C68.198 45.7778 68.1535 45.8222 68.1091 45.8667L67.8868 46.2222L67.709 45.8222C67.6645 45.7333 67.62 45.6445 67.5311 45.6C67.3533 45.4222 67.1755 45.2889 66.9087 45.2889C66.2863 45.2889 65.7973 45.6444 65.3971 46.1333L65.1304 46.4889L64.997 46.0889C64.8192 45.6445 64.508 45.5111 64.0634 45.5111C63.7967 45.5111 63.5744 45.6 63.3966 45.7778C63.2187 46 63.1298 46.2222 63.1298 46.4889V52.1333C63.1298 52.4 63.1743 52.6222 63.3521 52.8444C63.4855 53.0222 63.7078 53.1556 63.9301 53.1556C64.6414 53.1556 64.997 52.8445 64.997 52.0889V49.1556C64.997 48.6222 65.1304 48.0444 65.6194 47.7333C65.8862 47.5111 66.3308 47.3778 66.642 47.2889C66.9087 47.2 67.3088 47.0667 67.5756 46.8889C67.62 46.8444 67.6645 46.8 67.709 46.7556L67.9757 46.3556L68.1535 46.8C68.198 46.8889 68.198 46.9778 68.2424 47.0222L70.5542 52.5333L69.5762 54.8889C69.3539 55.2 69.3094 55.4222 69.265 55.6Z" fill="black"/>
<path id="Vector_22" fill-rule="evenodd" clip-rule="evenodd" d="M30.0089 61.3778V56.9333C30.0089 56.5778 29.8755 56.3555 29.4754 56.3555C29.0753 56.3555 28.9419 56.5333 28.9419 56.9333V58.6222H26.2744V56.8889C26.2744 56.5333 26.1411 56.3111 25.741 56.3111C25.3408 56.3111 25.2075 56.4889 25.2075 56.8889V61.3333C25.2075 61.6889 25.3408 61.9111 25.741 61.9111C26.1411 61.9111 26.2744 61.6889 26.2744 61.3333V59.5555H28.9419V61.3778C28.9419 61.7333 29.0753 61.9111 29.4309 61.9111C29.8311 61.9555 30.0089 61.7778 30.0089 61.3778ZM36.0996 59.1556C36.0996 58.4 35.9218 57.6444 35.3883 57.0667C34.8548 56.4889 34.1434 56.2667 33.3877 56.2667C32.6319 56.2667 31.9206 56.4889 31.4315 57.0667C30.898 57.6444 30.7202 58.4 30.7202 59.1556C30.7202 59.9111 30.898 60.6222 31.4315 61.2C31.965 61.7778 32.6319 62 33.3877 62C34.1434 62 34.8548 61.7778 35.3883 61.2C35.9218 60.6222 36.0996 59.9111 36.0996 59.1556ZM34.9437 59.1556C34.9437 59.6 34.8548 60.0444 34.588 60.4444C34.3213 60.8444 33.8767 61.0667 33.3877 61.0667C32.8986 61.0667 32.4985 60.8889 32.1873 60.4889C31.9206 60.0889 31.8316 59.6444 31.8316 59.2C31.8316 58.7556 31.9206 58.2667 32.1873 57.9111C32.4541 57.4667 32.8542 57.2889 33.3877 57.2889C33.8767 57.2889 34.2768 57.4667 34.588 57.9111C34.8548 58.2222 34.9437 58.6667 34.9437 59.1556ZM41.39 59.6889V56.8889C41.39 56.7555 41.3456 56.5778 41.2567 56.4889C41.1677 56.3556 40.9899 56.3555 40.8565 56.3555C40.7232 56.3555 40.5898 56.4 40.5009 56.4889C40.412 56.6222 40.3675 56.7555 40.3675 56.8889V59.6889C40.3675 60.0444 40.2786 60.3555 40.0118 60.6222C39.7451 60.8889 39.4339 60.9778 39.0782 60.9778C38.7226 60.9778 38.4114 60.8889 38.1446 60.6222C37.8779 60.3555 37.789 60.0444 37.789 59.6889V56.8889C37.789 56.5333 37.6556 56.3111 37.2555 56.3111C36.8554 56.3111 36.722 56.4889 36.722 56.8889V59.6889C36.722 60.3111 36.8998 60.9333 37.3889 61.3778C37.8779 61.8222 38.4558 62 39.1227 62C39.7896 62 40.3675 61.8222 40.8565 61.3778C41.2122 60.9333 41.39 60.3555 41.39 59.6889ZM43.3906 58.2222C43.2573 58.1333 43.2128 58 43.2128 57.8222C43.2128 57.6444 43.3462 57.4667 43.4795 57.3778C43.6129 57.2889 43.7907 57.2889 43.9241 57.2889C44.102 57.2889 44.3242 57.3333 44.5021 57.3778C44.591 57.4222 44.8577 57.5111 44.9911 57.5111C45.1245 57.5111 45.2579 57.4667 45.3468 57.3778C45.4357 57.2889 45.4801 57.1555 45.4801 57.0222C45.4801 56.7111 45.2134 56.5333 44.9466 56.4444C44.6354 56.3111 44.3242 56.2667 44.013 56.2667C43.524 56.2667 42.9905 56.3555 42.5904 56.6667C42.1903 56.9778 42.0124 57.4222 42.0124 57.9555C42.0124 58.3555 42.1014 58.7555 42.4126 59.0222C42.6793 59.2444 43.1239 59.3778 43.4351 59.4667C43.7018 59.5555 44.1464 59.6889 44.3687 59.8222C44.5465 59.9556 44.6354 60.1333 44.6354 60.3111C44.6354 60.5333 44.5465 60.7111 44.3687 60.8C44.1909 60.8889 44.013 60.9333 43.8352 60.9333C43.5685 60.9333 43.3017 60.8444 43.035 60.7556C42.8571 60.7111 42.5904 60.5778 42.4126 60.5778C42.2792 60.5778 42.1903 60.6222 42.1014 60.7556C42.0124 60.8889 41.9235 61.0222 41.9235 61.1556C41.9235 61.3778 42.1014 61.5556 42.2792 61.6444C42.7238 61.9111 43.2573 62 43.7908 62C44.3242 62 44.8133 61.8667 45.2578 61.5555C45.658 61.2 45.8358 60.7555 45.8358 60.2222C45.8358 59.7333 45.658 59.2889 45.2578 59.0222C44.9466 58.8 44.2798 58.5778 43.8797 58.4444C43.7463 58.4 43.4795 58.3111 43.3906 58.2222ZM49.6592 61.3778C49.6592 61.0222 49.4369 60.9333 49.1257 60.9333H47.6141V59.6H49.0367C49.1701 59.6 49.3035 59.5555 49.3924 59.4667C49.4813 59.3778 49.5258 59.2444 49.5258 59.1111C49.5258 58.9778 49.4813 58.8444 49.3924 58.7556C49.3035 58.6667 49.1701 58.6222 49.0367 58.6222H47.6141V57.3333H49.1257C49.4369 57.3333 49.6147 57.2 49.6147 56.8444C49.6147 56.4889 49.4813 56.3555 49.1257 56.3555H47.0362C46.9028 56.3555 46.7694 56.4 46.6805 56.4889C46.5916 56.5778 46.5471 56.7111 46.5471 56.8889V61.3333C46.5471 61.4667 46.5916 61.6 46.6805 61.7333C46.8139 61.8222 46.9472 61.8667 47.0806 61.8667H49.0812C49.4813 61.8667 49.6592 61.7333 49.6592 61.3778Z" fill="black"/>
<path id="Vector_23" fill-rule="evenodd" clip-rule="evenodd" d="M29.2976 7.86666C27.1636 8.88888 25.7854 10.0889 24.9407 11.4222C22.4511 15.4667 25.8743 25.1111 30.987 30.8444C37.0332 37.6444 41.3011 36 45.8358 28.9333C47.6586 26.0444 49.0812 22.7555 49.8814 19.5111C50.8595 15.6 50.4594 11.6889 47.3029 8.93333C45.3023 7.2 41.9235 5.95555 36.2774 6.22222C33.8323 6.35555 31.5205 6.79999 29.2976 7.86666Z" fill="#ED2024"/>
<path id="Vector_24" fill-rule="evenodd" clip-rule="evenodd" d="M20.0948 7.11111L28.6307 3.6V0.533332H31.7872V2.31111L37.4333 0L54.7718 7.11111V10.7556L37.4333 3.64444L20.0948 10.7556V7.11111Z" fill="#5C9F38"/>
<path id="Vector_25" fill-rule="evenodd" clip-rule="evenodd" d="M39.1671 8.75555C39.4339 8.75555 39.6562 9.24459 39.6562 9.82254C39.6562 10.4005 39.4339 10.8895 39.1671 10.8895C38.9004 10.8895 38.6781 10.4005 38.6781 9.82254C38.6781 9.24459 38.9004 8.75555 39.1671 8.75555Z" fill="white"/>
<path id="Vector_26" fill-rule="evenodd" clip-rule="evenodd" d="M42.9016 10.2222C43.1684 10.2222 43.3907 10.7113 43.3907 11.2892C43.3907 11.8672 43.1684 12.3562 42.9016 12.3562C42.6349 12.3562 42.4126 11.8672 42.4126 11.2892C42.4126 10.7113 42.6349 10.2222 42.9016 10.2222Z" fill="white"/>
<path id="Vector_27" fill-rule="evenodd" clip-rule="evenodd" d="M45.7468 12.2667C46.0136 12.2667 46.2359 12.7557 46.2359 13.3336C46.2359 13.9116 46.0136 14.4006 45.7468 14.4006C45.4801 14.4006 45.2578 13.9116 45.2578 13.3336C45.2578 12.7557 45.4801 12.2667 45.7468 12.2667Z" fill="white"/>
<path id="Vector_28" fill-rule="evenodd" clip-rule="evenodd" d="M47.9697 15.2C48.2365 15.2 48.4588 15.689 48.4588 16.267C48.4588 16.8449 48.2365 17.334 47.9697 17.334C47.703 17.334 47.4807 16.8449 47.4807 16.267C47.4363 15.689 47.703 15.2 47.9697 15.2Z" fill="white"/>
<path id="Vector_29" fill-rule="evenodd" clip-rule="evenodd" d="M40.7676 14.0889C41.0343 14.0889 41.2566 14.5779 41.2566 15.1559C41.2566 15.7338 41.0343 16.2228 40.7676 16.2228C40.5008 16.2228 40.2786 15.7338 40.2786 15.1559C40.2786 14.5779 40.5008 14.0889 40.7676 14.0889Z" fill="white"/>
<path id="Vector_30" fill-rule="evenodd" clip-rule="evenodd" d="M36.0107 11.8222C36.2774 11.8222 36.4997 12.3113 36.4997 12.8892C36.4997 13.4671 36.2774 13.9562 36.0107 13.9562C35.744 13.9562 35.5217 13.4671 35.5217 12.8892C35.5217 12.3113 35.744 11.8222 36.0107 11.8222Z" fill="white"/>
<path id="Vector_31" fill-rule="evenodd" clip-rule="evenodd" d="M35.6995 19.7778C35.9662 19.7778 36.1885 20.2668 36.1885 20.8448C36.1885 21.4227 35.9662 21.9117 35.6995 21.9117C35.4327 21.9117 35.2104 21.4227 35.2104 20.8448C35.2104 20.2668 35.4327 19.7778 35.6995 19.7778Z" fill="white"/>
<path id="Vector_32" fill-rule="evenodd" clip-rule="evenodd" d="M38.6337 16.8C38.9004 16.8 39.1227 17.289 39.1227 17.867C39.1227 18.4449 38.9004 18.934 38.6337 18.934C38.3669 18.934 38.1446 18.4449 38.1446 17.867C38.1002 17.289 38.3225 16.8 38.6337 16.8Z" fill="white"/>
<path id="Vector_33" fill-rule="evenodd" clip-rule="evenodd" d="M43.8352 14.9333C44.1019 14.9333 44.3242 15.4224 44.3242 16.0003C44.3242 16.5783 44.1019 17.0673 43.8352 17.0673C43.5685 17.0673 43.3462 16.5783 43.3462 16.0003C43.3017 15.3779 43.524 14.9333 43.8352 14.9333Z" fill="white"/>
<path id="Vector_34" fill-rule="evenodd" clip-rule="evenodd" d="M45.569 17.5556C45.8358 17.5556 46.0581 18.0446 46.0581 18.6225C46.0581 19.2005 45.8358 19.6895 45.569 19.6895C45.3023 19.6895 45.08 19.2005 45.08 18.6225C45.0355 18.0446 45.2578 17.5556 45.569 17.5556Z" fill="white"/>
<path id="Vector_35" fill-rule="evenodd" clip-rule="evenodd" d="M41.8791 17.4222C42.1458 17.4222 42.3681 17.9112 42.3681 18.4892C42.3681 19.0671 42.1458 19.5562 41.8791 19.5562C41.6123 19.5562 41.39 19.0671 41.39 18.4892C41.39 17.9112 41.6123 17.4222 41.8791 17.4222Z" fill="white"/>
<path id="Vector_36" fill-rule="evenodd" clip-rule="evenodd" d="M39.5673 21.1555C39.834 21.1555 40.0563 21.6446 40.0563 22.2225C40.0563 22.8005 39.834 23.2895 39.5673 23.2895C39.3005 23.2895 39.0782 22.8005 39.0782 22.2225C39.0782 21.6446 39.3005 21.1555 39.5673 21.1555Z" fill="white"/>
<path id="Vector_37" fill-rule="evenodd" clip-rule="evenodd" d="M43.4351 21.3333C43.7018 21.3333 43.9241 21.8224 43.9241 22.4003C43.9241 22.9783 43.7018 23.4673 43.4351 23.4673C43.1683 23.4673 42.946 22.9783 42.946 22.4003C42.946 21.8224 43.1683 21.3333 43.4351 21.3333Z" fill="white"/>
<path id="Vector_38" fill-rule="evenodd" clip-rule="evenodd" d="M46.1025 22.4445C46.3692 22.4445 46.5915 22.9335 46.5915 23.5114C46.5915 24.0894 46.3692 24.5784 46.1025 24.5784C45.8357 24.5784 45.6135 24.0894 45.6135 23.5114C45.569 22.9335 45.7913 22.4445 46.1025 22.4445Z" fill="white"/>
<path id="Vector_39" fill-rule="evenodd" clip-rule="evenodd" d="M41.1233 24.6667C41.3901 24.6667 41.6123 25.1557 41.6123 25.7337C41.6123 26.3116 41.3901 26.8006 41.1233 26.8006C40.8566 26.8006 40.6343 26.3116 40.6343 25.7337C40.6343 25.1112 40.8566 24.6667 41.1233 24.6667Z" fill="white"/>
<path id="Vector_40" fill-rule="evenodd" clip-rule="evenodd" d="M41.1677 28.4444C41.4345 28.4444 41.6568 28.9335 41.6568 29.5114C41.6568 30.0894 41.4345 30.5784 41.1677 30.5784C40.901 30.5784 40.6787 30.0894 40.6787 29.5114C40.6787 28.9335 40.901 28.4444 41.1677 28.4444Z" fill="white"/>
<path id="Vector_41" fill-rule="evenodd" clip-rule="evenodd" d="M43.5685 26.2222C43.8352 26.2222 44.0575 26.7113 44.0575 27.2892C44.0575 27.8672 43.8352 28.3562 43.5685 28.3562C43.3017 28.3562 43.0795 27.8672 43.0795 27.2892C43.035 26.7113 43.2573 26.2222 43.5685 26.2222Z" fill="white"/>
<path id="Vector_42" fill-rule="evenodd" clip-rule="evenodd" d="M27.3414 11.1111C23.1624 17.7333 29.3865 27.6 35.2549 32.4444C27.3859 21.8667 26.23 18.4444 27.3414 11.1111Z" fill="white"/>
</g>
</svg>
