<svg width="20" height="20" viewBox="0 0 20 20" fill="none" xmlns="http://www.w3.org/2000/svg">
<g id="Frame 36">
<g id="Vector">
<path d="M3.79789 17C3.59373 17 3.38958 16.9219 3.23327 16.7672C2.92224 16.4562 2.92224 15.9506 3.23327 15.6396L15.6391 3.23484C15.9501 2.92385 16.4557 2.92385 16.7667 3.23484C17.0778 3.54584 17.0778 4.05141 16.7667 4.3624L4.36092 16.7672C4.20621 16.9219 4.00205 17 3.79789 17Z" fill="white"/>
<path d="M16.2037 17C15.9995 17 15.7954 16.9219 15.6391 16.7672L3.23327 4.36081C2.92224 4.04981 2.92224 3.54424 3.23327 3.23325C3.54429 2.92225 4.0499 2.92225 4.36092 3.23325L16.7667 15.638C17.0778 15.949 17.0778 16.4546 16.7667 16.7656C16.612 16.9219 16.4079 17 16.2037 17Z" fill="white"/>
</g>
</g>
</svg>
